<svg version="1.1" viewBox="0.0 0.0 16.0 16.0" fill="none" stroke="none" stroke-linecap="square" stroke-miterlimit="10" xmlns:xlink="http://www.w3.org/1999/xlink" xmlns="http://www.w3.org/2000/svg"><clipPath id="p.0"><path d="m0 0l16.0 0l0 16.0l-16.0 0l0 -16.0z" clip-rule="nonzero"/></clipPath><g clip-path="url(#p.0)"><path fill="#000000" fill-opacity="0.0" d="m0 0l16.0 0l0 16.0l-16.0 0z" fill-rule="evenodd"/><path fill="#274e13" d="m5.102362 16.0l2.8976378 -5.9553804l2.8976374 5.9553804z" fill-rule="evenodd"/><path stroke="#000000" stroke-width="1.0" stroke-linejoin="round" stroke-linecap="butt" d="m5.102362 16.0l2.8976378 -5.9553804l2.8976374 5.9553804z" fill-rule="evenodd"/><path fill="#274e13" d="m10.897637 0l-2.8976374 5.9553804l-2.8976378 -5.9553804z" fill-rule="evenodd"/><path stroke="#000000" stroke-width="1.0" stroke-linejoin="round" stroke-linecap="butt" d="m10.897637 0l-2.8976374 5.9553804l-2.8976378 -5.9553804z" fill-rule="evenodd"/><path fill="#38761d" d="m4.8097115 8.183727l1.2761154 -1.8608928l3.8283463 0l1.2761154 1.8608928l-1.2761154 1.8608923l-3.8283463 0z" fill-rule="evenodd"/><path stroke="#000000" stroke-width="1.0" stroke-linejoin="round" stroke-linecap="butt" d="m4.8097115 8.183727l1.2761154 -1.8608928l3.8283463 0l1.2761154 1.8608928l-1.2761154 1.8608923l-3.8283463 0z" fill-rule="evenodd"/><path fill="#ffff00" d="m7.0091863 8.183727l0 0c0 -0.54793644 0.44419003 -0.992126 0.992126 -0.992126l0 0c0.26312828 0 0.5154791 0.104527 0.70153904 0.29058695c0.18605995 0.18605947 0.29058743 0.43841076 0.29058743 0.70153904l0 0c0 0.5479355 -0.44419003 0.9921255 -0.99212646 0.9921255l0 0c-0.54793596 0 -0.992126 -0.44419003 -0.992126 -0.9921255z" fill-rule="evenodd"/><path stroke="#000000" stroke-width="1.0" stroke-linejoin="round" stroke-linecap="butt" d="m7.0091863 8.183727l0 0c0 -0.54793644 0.44419003 -0.992126 0.992126 -0.992126l0 0c0.26312828 0 0.5154791 0.104527 0.70153904 0.29058695c0.18605995 0.18605947 0.29058743 0.43841076 0.29058743 0.70153904l0 0c0 0.5479355 -0.44419003 0.9921255 -0.99212646 0.9921255l0 0c-0.54793596 0 -0.992126 -0.44419003 -0.992126 -0.9921255z" fill-rule="evenodd"/><path fill="#274e13" d="m15.999991 11.081365l-4.729659 -2.8976374l4.729659 -2.8976378z" fill-rule="evenodd"/><path stroke="#000000" stroke-width="1.0" stroke-linejoin="round" stroke-linecap="butt" d="m15.999991 11.081365l-4.729659 -2.8976374l4.729659 -2.8976378z" fill-rule="evenodd"/><path fill="#274e13" d="m0.08135617 5.2860894l4.729659 2.8976378l-4.729659 2.8976374z" fill-rule="evenodd"/><path stroke="#000000" stroke-width="1.0" stroke-linejoin="round" stroke-linecap="butt" d="m0.08135617 5.2860894l4.729659 2.8976378l-4.729659 2.8976374z" fill-rule="evenodd"/></g></svg>